# xmcd
# 
# Track frame offsets:
#     150
#     18954
#     37016
#     52887
#     73488
#     90627
#     106362
#     122825
#     139288
#     157608
#     172703
#     190048
#     204965
#     217298
# 
# Disc length: 3120
# 
# Revision: 0
# Processed by: cddbd v1.5.2PL0 Copyright (c) Steve Scherf et al.
# Submitted via: BonkEnc v1.0.5
# 
DISCID=bf0c2e0e
DTITLE=Eduardo Costa - Eduardo Costa
DYEAR=0
DGENRE=Sertanejo
TTITLE0=Ilusão
TTITLE1=Nosso Amor É Ouro
TTITLE2=Eu Duvido
TTITLE3=Coração Aberto
TTITLE4=Acabou Amor
TTITLE5=Não Acredito
TTITLE6=Eu Quero Esse Amor
TTITLE7=É Amor Demais
TTITLE8=Você Pisou Na Bola
TTITLE9=Tem Que Ter Amor
TTITLE10=Olhando Nos Teus Olhos
TTITLE11=Pra Afastar A Solidão
TTITLE12=Bate Forte Coração
TTITLE13=Não Vai Embora
EXTD=Eduardo Costa - Eduardo Costa
EXTT0=
EXTT1=
EXTT2=
EXTT3=
EXTT4=
EXTT5=
EXTT6=
EXTT7=
EXTT8=
EXTT9=
EXTT10=
EXTT11=
EXTT12=
EXTT13=
PLAYORDER=
